C:\Users\Nicos\Documents\OpenSimProjects\SprintingProject\Study1\PredictiveResults\IC_pred_Sprinting_optimum_27-October-2023__18-13-56_p02_maxVel_01___HTD_Plus_2_GRF.mot
version=1
nRows=129
nColumns=10
inDegrees=yes
endheader
time	ground_force_vx	ground_force_vy	ground_force_vz	ground_force_px	ground_force_py	ground_force_pz	ground_torque_x	ground_torque_y	ground_torque_z
0.056000	-89.640030	36.683639	17.296794	0.372169	0.000000	0.410941	-15.074821	-43.273829	13.652503
0.056648	-113.792308	46.751188	20.138203	0.375499	0.000000	0.410344	-19.184082	-54.255249	17.555015
0.058694	-190.699715	80.832503	23.514388	0.386013	0.000000	0.408780	-33.042681	-87.024696	31.202394
0.060177	-246.224883	107.859576	20.184859	0.393099	0.000000	0.408093	-44.016710	-108.392983	42.399443
0.060824	-271.115311	121.394572	18.626709	0.395955	0.000000	0.407943	-49.522012	-117.935194	48.066836
0.062871	-359.943744	172.080153	8.144826	0.403321	0.000000	0.408011	-70.210652	-150.001778	69.403549
0.064354	-455.840264	230.405137	-3.519459	0.405550	0.000000	0.409194	-94.280494	-184.749814	93.440704
0.065001	-512.592862	267.614640	-9.530505	0.405504	0.000000	0.409702	-109.642342	-205.639270	108.518825
0.067048	-737.932876	433.176663	-35.102204	0.403299	0.000000	0.411128	-178.091197	-287.859478	174.699622
0.068530	-920.511654	607.022373	-57.083109	0.400633	0.000000	0.412222	-250.228096	-354.110941	243.193446
0.069178	-993.320740	695.234433	-70.008698	0.399329	0.000000	0.412636	-286.878683	-378.777017	277.627356
0.071224	-1138.602613	1006.318762	-115.329831	0.394605	0.000000	0.413639	-416.252790	-418.499959	397.098586
0.072707	-1182.932635	1339.349280	-129.947057	0.385490	0.000000	0.414249	-554.824510	-424.060463	516.305731
0.073355	-1167.911982	1517.715614	-134.151130	0.381451	0.000000	0.414495	-629.085025	-411.198679	578.934371
0.075401	-973.723990	2120.793601	-96.428573	0.371833	0.000000	0.415176	-880.503565	-324.791540	788.581101
0.076884	-729.942013	2537.942815	-36.964519	0.366886	0.000000	0.415536	-1054.606787	-231.390901	931.134481
0.077532	-620.183065	2701.625796	-13.746494	0.364956	0.000000	0.415627	-1122.869968	-189.916848	985.975267
0.079578	-295.147039	3160.524409	34.995776	0.360233	0.000000	0.415709	-1313.858643	-66.563039	1138.525594
0.081061	-178.469920	3448.787668	34.720815	0.357898	0.000000	0.415616	-1433.371503	-19.036794	1234.313750
0.081709	-122.054098	3563.298235	11.412738	0.357281	0.000000	0.415503	-1480.562568	10.856324	1273.099012
0.083755	24.055094	3872.788359	-129.551534	0.356382	0.000000	0.414886	-1606.764865	96.749218	1380.193244
0.085238	102.038637	4045.196143	-124.389284	0.356696	0.000000	0.414937	-1678.499635	127.043662	1442.905668
0.085885	140.863941	4105.332887	-139.809999	0.357104	0.000000	0.414884	-1703.237287	147.589087	1466.030819
0.087932	246.107447	4220.197972	-148.194505	0.359003	0.000000	0.414930	-1751.087067	194.816116	1515.062221
0.089415	321.038271	4236.881079	-148.688651	0.360755	0.000000	0.415009	-1758.344188	226.186825	1528.475832
0.090062	354.789650	4226.838014	-146.873994	0.361625	0.000000	0.415053	-1754.362613	239.473776	1528.529325
0.092108	429.199150	4149.080690	-138.244000	0.365132	0.000000	0.415221	-1722.783477	266.866347	1514.963497
0.093591	471.525434	4047.447909	-129.858530	0.368358	0.000000	0.415371	-1681.194273	281.083173	1490.911341
0.094239	494.315326	3990.276918	-123.383024	0.369940	0.000000	0.415458	-1657.792799	288.147015	1476.161199
0.096285	562.396956	3767.153247	-103.588304	0.375542	0.000000	0.415615	-1565.684362	307.235361	1414.723687
0.097768	586.698470	3571.014873	-95.273650	0.380303	0.000000	0.415800	-1484.828208	312.458518	1358.066668
0.098416	598.983751	3478.718139	-75.594836	0.382583	0.000000	0.416010	-1447.182345	312.110024	1330.899599
0.100462	630.227030	3175.478570	-67.449122	0.390590	0.000000	0.416265	-1321.839704	316.223949	1240.311631
0.101945	636.116795	2948.916757	-56.770916	0.397065	0.000000	0.416462	-1228.111238	311.690082	1170.911129
0.102593	633.618050	2849.539224	-50.477298	0.400012	0.000000	0.416569	-1187.031104	307.604404	1139.849472
0.104639	634.939433	2542.631645	-34.893252	0.409926	0.000000	0.416887	-1059.989969	296.757636	1042.290129
0.106122	626.584728	2335.215252	-29.301654	0.417141	0.000000	0.417094	-974.005131	286.620705	974.114728
0.106770	623.542572	2252.898751	-26.556897	0.419974	0.000000	0.417161	-939.820834	282.621420	946.159156
0.108816	624.349792	2033.188813	-14.018215	0.426441	0.000000	0.417332	-848.515058	274.894549	867.035527
0.110299	627.114468	1879.357270	-4.337429	0.430720	0.000000	0.417575	-784.772593	270.600066	809.476380
0.110946	628.247267	1810.604850	0.873894	0.432673	0.000000	0.417708	-756.305035	268.353229	783.399343
0.112993	629.742315	1590.193864	16.987911	0.439374	0.000000	0.418199	-665.018156	260.498264	698.690549
0.114476	625.380864	1431.454356	29.459273	0.444587	0.000000	0.418587	-599.188750	252.473192	636.405499
0.115123	619.031616	1364.651987	33.391361	0.446760	0.000000	0.418727	-571.416403	247.903115	609.672211
0.117169	596.024775	1173.887748	46.713317	0.453051	0.000000	0.419152	-492.037335	231.688273	531.831369
0.118652	570.922452	1041.983068	52.859458	0.457438	0.000000	0.419426	-437.034549	217.778671	476.642852
0.119300	559.227894	987.842287	55.105105	0.459177	0.000000	0.419560	-414.458691	211.473112	453.594079
0.121346	518.691071	836.088411	62.837054	0.463098	0.000000	0.419899	-351.072527	189.670050	387.190512
0.122829	484.081412	740.753840	69.217821	0.464247	0.000000	0.419715	-310.905624	171.521308	343.892903
0.123477	466.834809	699.758345	71.324089	0.464494	0.000000	0.419556	-293.588125	163.074031	325.033672
0.125523	410.259890	573.400840	77.562716	0.464566	0.000000	0.419010	-240.260408	135.937899	266.382350
0.127006	368.973826	492.082173	80.694033	0.463110	0.000000	0.418754	-206.061330	117.155687	227.888083
0.127654	348.118909	456.679710	82.019155	0.462162	0.000000	0.418666	-191.196219	107.848313	211.060006
0.129700	283.571678	344.647885	77.036761	0.458730	0.000000	0.418083	-144.091289	83.217744	158.100365
0.131183	227.044885	262.664590	70.520938	0.455544	0.000000	0.417497	-109.661670	62.665214	119.655173
0.131831	198.005283	227.060158	67.738981	0.453891	0.000000	0.417219	-94.733784	51.865462	103.060468
0.133877	104.876656	121.454321	52.049840	0.448100	0.000000	0.415771	-50.497203	20.281144	54.423705
0.135360	48.536076	58.277767	32.093834	0.443695	0.000000	0.413721	-24.110727	5.840516	25.857548
0.136007	29.193038	36.076347	21.813496	0.441777	0.000000	0.412435	-14.879161	2.403542	15.937698
0.138054	1.584568	2.469877	1.903701	0.436560	0.000000	0.406655	-1.004389	-0.186706	1.078249
0.139537	0.063556	0.138685	0.119861	0.434626	0.000000	0.400958	-0.055607	-0.026612	0.060276
0.140184	0.009024	0.026109	0.023121	0.434655	0.000000	0.398240	-0.010398	-0.006456	0.011349
0.142230	-0.000003	0.000058	0.000050	0.438997	0.000000	0.390114	-0.000023	-0.000023	0.000025
0.143713	-0.000000	0.000000	0.000000	0.446637	0.000000	0.386198	-0.000000	-0.000000	0.000000
0.144361	-0.000000	0.000000	0.000000	0.451128	0.000000	0.385471	-0.000000	-0.000000	0.000000
0.146407	-0.000000	0.000000	0.000000	0.469107	0.000000	0.387285	-0.000000	-0.000000	0.000000
0.147890	-0.000000	0.000000	0.000000	0.485072	0.000000	0.390817	-0.000000	-0.000000	0.000000
0.148538	-0.000000	0.000000	0.000000	NaN	0.000000	NaN	0.000000	0.000000	0.000000
0.150584	-0.000000	0.000000	-0.000000	NaN	0.000000	NaN	0.000000	0.000000	0.000000
0.152067	-0.000000	0.000000	-0.000000	NaN	0.000000	NaN	0.000000	0.000000	0.000000
0.152715	-0.000000	0.000000	-0.000000	NaN	0.000000	NaN	0.000000	0.000000	0.000000
0.154761	-0.000000	0.000000	0.000000	NaN	0.000000	NaN	0.000000	0.000000	0.000000
0.156244	-0.000000	0.000000	0.000000	NaN	0.000000	NaN	0.000000	0.000000	0.000000
0.156892	-0.000000	0.000000	0.000000	NaN	0.000000	NaN	0.000000	0.000000	0.000000
0.158938	-0.000000	0.000000	0.000000	NaN	0.000000	NaN	0.000000	0.000000	0.000000
0.160421	-0.000000	0.000000	0.000000	NaN	0.000000	NaN	0.000000	0.000000	0.000000
0.161068	-0.000000	0.000000	0.000000	NaN	0.000000	NaN	0.000000	0.000000	0.000000
0.163115	-0.000000	0.000000	0.000000	NaN	0.000000	NaN	0.000000	0.000000	0.000000
0.164598	-0.000000	0.000000	0.000000	NaN	0.000000	NaN	0.000000	0.000000	0.000000
0.165245	-0.000000	0.000000	0.000000	NaN	0.000000	NaN	0.000000	0.000000	0.000000
0.167291	-0.000000	0.000000	0.000000	NaN	0.000000	NaN	0.000000	0.000000	0.000000
0.168774	-0.000000	0.000000	0.000000	NaN	0.000000	NaN	0.000000	0.000000	0.000000
0.169422	-0.000000	0.000000	0.000000	NaN	0.000000	NaN	0.000000	0.000000	0.000000
0.171468	-0.000000	0.000000	0.000000	NaN	0.000000	NaN	0.000000	0.000000	0.000000
0.172951	-0.000000	0.000000	0.000000	NaN	0.000000	NaN	0.000000	0.000000	0.000000
0.173599	-0.000000	0.000000	0.000000	NaN	0.000000	NaN	0.000000	0.000000	0.000000
0.175645	-0.000000	0.000000	0.000000	NaN	0.000000	NaN	0.000000	0.000000	0.000000
0.177128	-0.000000	0.000000	0.000000	NaN	0.000000	NaN	0.000000	0.000000	0.000000
0.177776	-0.000000	0.000000	0.000000	NaN	0.000000	NaN	0.000000	0.000000	0.000000
0.179822	-0.000000	0.000000	0.000000	NaN	0.000000	NaN	0.000000	0.000000	0.000000
0.181305	-0.000000	0.000000	0.000000	NaN	0.000000	NaN	0.000000	0.000000	0.000000
0.181953	-0.000000	0.000000	0.000000	NaN	0.000000	NaN	0.000000	0.000000	0.000000
0.183999	-0.000000	0.000000	0.000000	NaN	0.000000	NaN	0.000000	0.000000	0.000000
0.185482	-0.000000	0.000000	0.000000	NaN	0.000000	NaN	0.000000	0.000000	0.000000
0.186129	-0.000000	0.000000	0.000000	NaN	0.000000	NaN	0.000000	0.000000	0.000000
0.188176	-0.000000	0.000000	0.000000	NaN	0.000000	NaN	0.000000	0.000000	0.000000
0.189659	-0.000000	0.000000	0.000000	NaN	0.000000	NaN	0.000000	0.000000	0.000000
0.190306	-0.000000	0.000000	-0.000000	NaN	0.000000	NaN	0.000000	0.000000	0.000000
0.192352	-0.000000	0.000000	-0.000000	NaN	0.000000	NaN	0.000000	0.000000	0.000000
0.193835	-0.000000	0.000000	-0.000000	NaN	0.000000	NaN	0.000000	0.000000	0.000000
0.194483	-0.000000	0.000000	-0.000000	NaN	0.000000	NaN	0.000000	0.000000	0.000000
0.196529	-0.000000	0.000000	-0.000000	NaN	0.000000	NaN	0.000000	0.000000	0.000000
0.198012	-0.000000	0.000000	-0.000000	NaN	0.000000	NaN	0.000000	0.000000	0.000000
0.198660	-0.000000	0.000000	-0.000000	NaN	0.000000	NaN	0.000000	0.000000	0.000000
0.200706	-0.000000	0.000000	-0.000000	NaN	0.000000	NaN	0.000000	0.000000	0.000000
0.202189	-0.000000	0.000000	-0.000000	NaN	0.000000	NaN	0.000000	0.000000	0.000000
0.202837	-0.000000	0.000000	-0.000000	NaN	0.000000	NaN	0.000000	0.000000	0.000000
0.204883	-0.000000	0.000000	-0.000000	NaN	0.000000	NaN	0.000000	0.000000	0.000000
0.206366	-0.000000	0.000000	-0.000000	NaN	0.000000	NaN	0.000000	0.000000	0.000000
0.207014	-0.000000	0.000000	-0.000000	NaN	0.000000	NaN	0.000000	0.000000	0.000000
0.209060	-0.000000	0.000000	-0.000000	NaN	0.000000	NaN	0.000000	0.000000	0.000000
0.210543	-0.000000	0.000000	-0.000000	NaN	0.000000	NaN	0.000000	0.000000	0.000000
0.211190	-0.000000	0.000000	-0.000000	NaN	0.000000	NaN	0.000000	0.000000	0.000000
0.213237	-0.000000	0.000000	-0.000000	NaN	0.000000	NaN	0.000000	0.000000	0.000000
0.214720	-0.000000	0.000000	-0.000000	NaN	0.000000	NaN	0.000000	0.000000	0.000000
0.215367	-0.000000	0.000000	-0.000000	NaN	0.000000	NaN	0.000000	0.000000	0.000000
0.217413	-0.000000	0.000000	-0.000000	NaN	0.000000	NaN	0.000000	0.000000	0.000000
0.218896	-0.000000	0.000000	-0.000000	NaN	0.000000	NaN	0.000000	0.000000	0.000000
0.219544	-0.000000	0.000000	-0.000000	NaN	0.000000	NaN	0.000000	0.000000	0.000000
0.221590	-0.000000	0.000000	-0.000000	NaN	0.000000	NaN	0.000000	0.000000	0.000000
0.223073	-0.000000	0.000000	-0.000000	NaN	0.000000	NaN	0.000000	0.000000	0.000000
0.223721	-0.000000	0.000000	-0.000000	NaN	0.000000	NaN	0.000000	0.000000	0.000000
0.225767	-0.000000	0.000000	-0.000000	NaN	0.000000	NaN	0.000000	0.000000	0.000000
0.227250	-0.000000	0.000000	-0.000000	NaN	0.000000	NaN	0.000000	0.000000	0.000000
0.227898	-0.000000	0.000000	-0.000000	NaN	0.000000	NaN	0.000000	0.000000	0.000000
0.229944	-0.000000	0.000000	-0.000000	NaN	0.000000	NaN	0.000000	0.000000	0.000000
0.231427	-0.000000	0.000000	-0.000000	NaN	0.000000	NaN	0.000000	0.000000	0.000000
0.232075	-0.000000	0.000000	-0.000000	NaN	0.000000	NaN	0.000000	0.000000	0.000000
0.234121	-0.000000	0.000000	-0.000000	NaN	0.000000	NaN	0.000000	0.000000	0.000000
